<svg
    xmlns="http://www.w3.org/2000/svg"
    viewBox="0 0 70 70"
    id="vector">
    <path
        id="path"
        d="M 61.007 13.39 C 60.615 12.543 59.771 12 58.842 12 L 11.125 12 C 10.196 12 9.352 12.543 8.96 13.39 C 8.569 14.238 8.703 15.237 9.303 15.95 L 27.825 37.983 L 27.825 52.8 C 27.825 53.709 28.336 54.539 29.144 54.946 L 38.687 59.747 C 39.025 59.915 39.39 60 39.755 60 C 40.191 60 40.626 59.881 41.009 59.642 C 41.712 59.204 42.141 58.432 42.141 57.6 L 42.141 37.982 L 60.664 15.949 C 61.263 15.236 61.398 14.237 61.007 13.39 Z M 37.933 35.555 C 37.57 35.988 37.37 36.536 37.37 37.104 L 37.37 53.716 L 32.599 51.317 L 32.599 37.104 C 32.599 36.537 32.398 35.988 32.035 35.555 L 16.267 16.8 L 53.7 16.8 L 37.933 35.555 Z"
        fill="#000000"/>
</svg>
